<svg xmlns="http://www.w3.org/2000/svg" fill="none" viewBox="0 0 24 24" id="Breakfast-Cereal-Bowl-Spoon--Streamline-Ultimate" height="24" width="24">
  <desc>
    Breakfast Cereal Bowl Spoon Streamline Icon: https://streamlinehq.com
  </desc>
  <path fill="#f5acab" d="M19.742 11.443c0.3139 0.2266 0.5919 0.4989 0.825 0.808 0.01 0 0.01 0 0.01 0.01 0.2306 0.355 0.3744 0.7592 0.42 1.18 -0.0171 0.5304 -0.2351 1.0344 -0.61 1.41 -2.6549 1.1067 -5.5113 1.6482 -8.387 1.59 -2.87678 0.0589 -5.73424 -0.4826 -8.39 -1.59 -0.37109 -0.3781 -0.58848 -0.8806 -0.61 -1.41 0.03984 -0.4099 0.17579 -0.8046 0.3968 -1.1521 0.22101 -0.3475 0.52086 -0.638 0.8752 -0.8479H0.5v1c0.067678 2.9832 1.31696 5.8176 3.47332 7.8802C6.12968 22.3838 9.01671 23.5059 12 23.441c2.9833 0.0649 5.8703 -1.0572 8.0267 -3.1198 2.1563 -2.0626 3.4056 -4.897 3.4733 -7.8802v-1l-3.758 0.002Z" stroke-width="1"></path>
  <path fill="#f28482" d="M12 20.14c-2.58267 0.0554 -5.10586 -0.7788 -7.14649 -2.3628C2.81288 16.1931 1.3789 13.9557 0.792 11.44H0.5v1c0.067678 2.9832 1.31696 5.8176 3.47332 7.8802C6.12968 22.3828 9.01671 23.5049 12 23.44c2.9833 0.0649 5.8703 -1.0572 8.0267 -3.1198 2.1563 -2.0626 3.4056 -4.897 3.4733 -7.8802v-1h-0.292c-0.5869 2.5157 -2.0209 4.7531 -4.0615 6.3372 -2.0406 1.584 -4.5638 2.4182 -7.1465 2.3628Z" stroke-width="1"></path>
  <path stroke="#13171a" stroke-linecap="round" stroke-linejoin="round" d="M19.742 11.443c0.3139 0.2266 0.5919 0.4989 0.825 0.808 0.01 0 0.01 0 0.01 0.01 0.2306 0.355 0.3744 0.7592 0.42 1.18 -0.0171 0.5304 -0.2351 1.0344 -0.61 1.41 -2.6549 1.1067 -5.5113 1.6482 -8.387 1.59 -2.87678 0.0589 -5.73424 -0.4826 -8.39 -1.59 -0.37109 -0.3781 -0.58848 -0.8806 -0.61 -1.41 0.03984 -0.4099 0.17579 -0.8046 0.3968 -1.1521 0.22101 -0.3475 0.52086 -0.638 0.8752 -0.8479H0.5v1c0.067678 2.9832 1.31696 5.8176 3.47332 7.8802C6.12968 22.3838 9.01671 23.5059 12 23.441c2.9833 0.0649 5.8703 -1.0572 8.0267 -3.1198 2.1563 -2.0626 3.4056 -4.897 3.4733 -7.8802v-1l-3.758 0.002Z" stroke-width="1"></path>
  <path fill="#f28482" d="M12 6.44099c6.35 0 11.5 2.24 11.5 5.00001 0 1.32 -1.18 2.52 -3.11 3.41 -2.6458 1.1402 -5.5105 1.6831 -8.39 1.59 -2.87954 0.0931 -5.74418 -0.4498 -8.39 -1.59 -1.93 -0.89 -3.11 -2.09 -3.11 -3.41C0.5 8.68099 5.647 6.44099 12 6.44099Z" stroke-width="1"></path>
  <path fill="#f7d9d6" d="M12 9.44099c4.69 0 9 1.79001 9 4.00001 -0.0215 0.5294 -0.2389 1.0319 -0.61 1.41 -2.6558 1.1074 -5.5132 1.6489 -8.39 1.59 -2.87678 0.0589 -5.73424 -0.4826 -8.39 -1.59 -0.37109 -0.3781 -0.58848 -0.8806 -0.61 -1.41 0 -2.21 4.307 -4.00001 9 -4.00001Z" stroke-width="1"></path>
  <path stroke="#13171a" stroke-linecap="round" stroke-linejoin="round" d="m9.331 11.467 0.669 0.669" stroke-width="1"></path>
  <path stroke="#13171a" stroke-linecap="round" stroke-linejoin="round" d="m6.578 12.508 0.67 -0.669" stroke-width="1"></path>
  <path fill="#84a59d" d="M17.476 13.61c0.1336 -0.4687 0.167 -0.9602 0.098 -1.4426 -0.0689 -0.4824 -0.2386 -0.9449 -0.498 -1.3574L20.9 2.07799c0.1053 -0.2797 0.0993 -0.58914 -0.0168 -0.86454 -0.1161 -0.275395 -0.3334 -0.495753 -0.6072 -0.615647 -0.2738 -0.119893 -0.5831 -0.130182 -0.8642 -0.028746 -0.2812 0.101435 -0.5127 0.306864 -0.6468 0.573933L14.937 9.877c-0.6015 0.12177 -1.1628 0.3925 -1.6325 0.7873 -0.4698 0.3948 -0.833 0.9012 -1.0565 1.4727 -0.1426 0.3263 -0.246 0.6683 -0.308 1.019" stroke-width="1"></path>
  <path stroke="#13171a" stroke-linecap="round" stroke-linejoin="round" d="M17.476 13.61c0.1336 -0.4687 0.167 -0.9602 0.098 -1.4426 -0.0689 -0.4824 -0.2386 -0.9449 -0.498 -1.3574L20.9 2.07799c0.1053 -0.2797 0.0993 -0.58914 -0.0168 -0.86454 -0.1161 -0.275395 -0.3334 -0.495753 -0.6072 -0.615647 -0.2738 -0.119893 -0.5831 -0.130182 -0.8642 -0.028746 -0.2812 0.101435 -0.5127 0.306864 -0.6468 0.573933L14.937 9.877c-0.6015 0.12177 -1.1628 0.3925 -1.6325 0.7873 -0.4698 0.3948 -0.833 0.9012 -1.0565 1.4727 -0.1426 0.3263 -0.246 0.6683 -0.308 1.019" stroke-width="1"></path>
  <path stroke="#13171a" stroke-linecap="round" stroke-linejoin="round" d="M12 9.44299c-4.694 0 -9 1.79101 -9 4.00001 0.02113 0.5357 0.24277 1.044 0.621 1.424" stroke-width="1"></path>
  <path stroke="#13171a" stroke-linecap="round" stroke-linejoin="round" d="M20.379 14.867c0.3782 -0.38 0.5999 -0.8883 0.621 -1.424 -0.0517 -0.4535 -0.2142 -0.8873 -0.4732 -1.2631 -0.2589 -0.3758 -0.6064 -0.6821 -1.0118 -0.8919" stroke-width="1"></path>
  <path stroke="#13171a" stroke-linecap="round" stroke-linejoin="round" d="M14.306 6.544c-0.766 -0.06667 -1.5347 -0.1 -2.306 -0.1 -6.351 0 -11.5 2.239 -11.5 5s5.149 5 11.5 5 11.5 -2.239 11.5 -5c0 -1.331 -1.19 -2.536 -3.131 -3.431" stroke-width="1"></path>
</svg>